REM DIRINDEX 1\5,1\2\6,1\2\7,1\3\8,1\3\9,1\4\10,1\4\11,1\4\12
REM DIRNAME cjc026,folder01,folder02,folder03,folder04,folder05,folder06,folder07,folder08,folder09,folder10,folder11
TITLE ""
FILE "EJE_DB3000_5th_3B_20.mp3" MP3
  TRACK 01 AUDIO
    TITLE "0:"
    INDEX 01 00:00:00
  TRACK 02 AUDIO
    TITLE "10:cjc026_08931"
    INDEX 01 00:00:08
  TRACK 03 AUDIO
    TITLE "0:"
    INDEX 01 00:01:30
  TRACK 04 AUDIO
    TITLE "11:cjc026_08932"
    INDEX 01 00:01:68
  TRACK 05 AUDIO
    TITLE "0:"
    INDEX 01 00:03:26
  TRACK 06 AUDIO
    TITLE "12:cjc026_08933"
    INDEX 01 00:03:61
  TRACK 07 AUDIO
    TITLE "0:"
    INDEX 01 00:05:08
  TRACK 08 AUDIO
    TITLE "10:cjc026_08934"
    INDEX 01 00:05:46
  TRACK 09 AUDIO
    TITLE "0:"
    INDEX 01 00:06:73
  TRACK 10 AUDIO
    TITLE "11:cjc026_08935"
    INDEX 01 00:07:33
  TRACK 11 AUDIO
    TITLE "0:"
    INDEX 01 00:09:08
  TRACK 12 AUDIO
    TITLE "12:cjc026_08936"
    INDEX 01 00:09:45
  TRACK 13 AUDIO
    TITLE "0:"
    INDEX 01 00:10:73
  TRACK 14 AUDIO
    TITLE "10:cjc026_08937"
    INDEX 01 00:11:39
  TRACK 15 AUDIO
    TITLE "0:"
    INDEX 01 00:12:72
  TRACK 16 AUDIO
    TITLE "11:cjc026_08938"
    INDEX 01 00:13:34
  TRACK 17 AUDIO
    TITLE "0:"
    INDEX 01 00:14:73
  TRACK 18 AUDIO
    TITLE "12:cjc026_08939"
    INDEX 01 00:15:36
  TRACK 19 AUDIO
    TITLE "0:"
    INDEX 01 00:16:71
  TRACK 20 AUDIO
    TITLE "10:cjc026_08940"
    INDEX 01 00:17:31
  TRACK 21 AUDIO
    TITLE "0:"
    INDEX 01 00:18:54
  TRACK 22 AUDIO
    TITLE "11:cjc026_08941"
    INDEX 01 00:19:14
  TRACK 23 AUDIO
    TITLE "0:"
    INDEX 01 00:20:52
  TRACK 24 AUDIO
    TITLE "12:cjc026_08942"
    INDEX 01 00:21:12
  TRACK 25 AUDIO
    TITLE "0:"
    INDEX 01 00:22:34
  TRACK 26 AUDIO
    TITLE "10:cjc026_08943"
    INDEX 01 00:22:69
  TRACK 27 AUDIO
    TITLE "0:"
    INDEX 01 00:24:06
  TRACK 28 AUDIO
    TITLE "11:cjc026_08944"
    INDEX 01 00:24:46
  TRACK 29 AUDIO
    TITLE "0:"
    INDEX 01 00:26:02
  TRACK 30 AUDIO
    TITLE "12:cjc026_08945"
    INDEX 01 00:26:39
  TRACK 31 AUDIO
    TITLE "0:"
    INDEX 01 00:27:51
  TRACK 32 AUDIO
    TITLE "10:cjc026_08946"
    INDEX 01 00:28:16
  TRACK 33 AUDIO
    TITLE "0:"
    INDEX 01 00:29:47
  TRACK 34 AUDIO
    TITLE "11:cjc026_08947"
    INDEX 01 00:30:07
  TRACK 35 AUDIO
    TITLE "0:"
    INDEX 01 00:31:61
  TRACK 36 AUDIO
    TITLE "12:cjc026_08948"
    INDEX 01 00:32:24
  TRACK 37 AUDIO
    TITLE "0:"
    INDEX 01 00:33:52
  TRACK 38 AUDIO
    TITLE "10:cjc026_08949"
    INDEX 01 00:34:15
  TRACK 39 AUDIO
    TITLE "0:"
    INDEX 01 00:35:37
  TRACK 40 AUDIO
    TITLE "11:cjc026_08950"
    INDEX 01 00:36:00
  TRACK 41 AUDIO
    TITLE "0:"
    INDEX 01 00:37:54
  TRACK 42 AUDIO
    TITLE "12:cjc026_08951"
    INDEX 01 00:38:14
  TRACK 43 AUDIO
    TITLE "0:"
    INDEX 01 00:39:36
  TRACK 44 AUDIO
    TITLE "10:cjc026_08952"
    INDEX 01 00:40:02
  TRACK 45 AUDIO
    TITLE "0:"
    INDEX 01 00:41:30
  TRACK 46 AUDIO
    TITLE "11:cjc026_08953"
    INDEX 01 00:41:65
  TRACK 47 AUDIO
    TITLE "0:"
    INDEX 01 00:43:28
  TRACK 48 AUDIO
    TITLE "12:cjc026_08954"
    INDEX 01 00:43:66
  TRACK 49 AUDIO
    TITLE "0:"
    INDEX 01 00:45:18
  TRACK 50 AUDIO
    TITLE "10:cjc026_08955"
    INDEX 01 00:45:56
  TRACK 51 AUDIO
    TITLE "0:"
    INDEX 01 00:46:73
  TRACK 52 AUDIO
    TITLE "11:cjc026_08956"
    INDEX 01 00:47:41
  TRACK 53 AUDIO
    TITLE "0:"
    INDEX 01 00:49:15
  TRACK 54 AUDIO
    TITLE "12:cjc026_08957"
    INDEX 01 00:49:53
  TRACK 55 AUDIO
    TITLE "0:"
    INDEX 01 00:50:67
  TRACK 56 AUDIO
    TITLE "10:cjc026_08958"
    INDEX 01 00:51:36
  TRACK 57 AUDIO
    TITLE "0:"
    INDEX 01 00:52:60
  TRACK 58 AUDIO
    TITLE "11:cjc026_08959"
    INDEX 01 00:53:23
  TRACK 59 AUDIO
    TITLE "0:"
    INDEX 01 00:54:64
  TRACK 60 AUDIO
    TITLE "12:cjc026_08960"
    INDEX 01 00:55:30
  TRACK 61 AUDIO
    TITLE "0:"
    INDEX 01 00:56:55
  TRACK 62 AUDIO
    TITLE "10:cjc026_08961"
    INDEX 01 00:57:18
  TRACK 63 AUDIO
    TITLE "0:"
    INDEX 01 00:58:59
  TRACK 64 AUDIO
    TITLE "11:cjc026_08962"
    INDEX 01 00:59:19
  TRACK 65 AUDIO
    TITLE "0:"
    INDEX 01 01:00:73
  TRACK 66 AUDIO
    TITLE "12:cjc026_08963"
    INDEX 01 01:01:36
  TRACK 67 AUDIO
    TITLE "0:"
    INDEX 01 01:03:02
  TRACK 68 AUDIO
    TITLE "10:cjc026_08964"
    INDEX 01 01:03:37
  TRACK 69 AUDIO
    TITLE "0:"
    INDEX 01 01:04:54
  TRACK 70 AUDIO
    TITLE "11:cjc026_08965"
    INDEX 01 01:05:20
  TRACK 71 AUDIO
    TITLE "0:"
    INDEX 01 01:06:69
  TRACK 72 AUDIO
    TITLE "12:cjc026_08966"
    INDEX 01 01:07:32
  TRACK 73 AUDIO
    TITLE "0:"
    INDEX 01 01:08:46
